<svg xmlns="http://www.w3.org/2000/svg" width="720" height="420" viewBox="0 0 720 420"><defs><linearGradient id="night" x2="0" y2="1"><stop stop-color="#0c1834"/><stop offset="1" stop-color="#5b6080"/></linearGradient></defs><rect width="720" height="420" fill="url(#night)"/><circle cx="535" cy="62" r="20" fill="#e5e9d6" opacity=".8"/><rect x="-9" y="252" width="34" height="80" fill="#24395e"/><path d="M-2 262h5m6 0h5" stroke="#fae7ac" stroke-width="3" opacity="0.9"/><path d="M-2 277h5m6 0h5" stroke="#b3b9b9" stroke-width="3" opacity="0.6"/><path d="M-2 292h5m6 0h5" stroke="#b3b9b9" stroke-width="3" opacity="0.6"/><path d="M-2 307h5m6 0h5" stroke="#fae7ac" stroke-width="3" opacity="0.6"/><path d="M-2 322h5m6 0h5" stroke="#b3b9b9" stroke-width="3" opacity="0.9"/><rect x="34" y="191" width="34" height="141" fill="#1c2b4c"/><path d="M41 201h5m6 0h5" stroke="#fae7ac" stroke-width="3" opacity="0.9"/><path d="M41 216h5m6 0h5" stroke="#b3b9b9" stroke-width="3" opacity="0.6"/><path d="M41 231h5m6 0h5" stroke="#b3b9b9" stroke-width="3" opacity="0.6"/><path d="M41 246h5m6 0h5" stroke="#fae7ac" stroke-width="3" opacity="0.6"/><path d="M41 261h5m6 0h5" stroke="#b3b9b9" stroke-width="3" opacity="0.9"/><path d="M41 276h5m6 0h5" stroke="#b3b9b9" stroke-width="3" opacity="0.6"/><path d="M41 291h5m6 0h5" stroke="#fae7ac" stroke-width="3" opacity="0.6"/><path d="M41 306h5m6 0h5" stroke="#b3b9b9" stroke-width="3" opacity="0.6"/><path d="M41 321h5m6 0h5" stroke="#b3b9b9" stroke-width="3" opacity="0.9"/><rect x="77" y="130" width="34" height="202" fill="#1c2b4c"/><path d="M84 140h5m6 0h5" stroke="#fae7ac" stroke-width="3" opacity="0.9"/><path d="M84 155h5m6 0h5" stroke="#b3b9b9" stroke-width="3" opacity="0.6"/><path d="M84 170h5m6 0h5" stroke="#b3b9b9" stroke-width="3" opacity="0.6"/><path d="M84 185h5m6 0h5" stroke="#fae7ac" stroke-width="3" opacity="0.6"/><path d="M84 200h5m6 0h5" stroke="#b3b9b9" stroke-width="3" opacity="0.9"/><path d="M84 215h5m6 0h5" stroke="#b3b9b9" stroke-width="3" opacity="0.6"/><path d="M84 230h5m6 0h5" stroke="#fae7ac" stroke-width="3" opacity="0.6"/><path d="M84 245h5m6 0h5" stroke="#b3b9b9" stroke-width="3" opacity="0.6"/><path d="M84 260h5m6 0h5" stroke="#b3b9b9" stroke-width="3" opacity="0.9"/><path d="M84 275h5m6 0h5" stroke="#fae7ac" stroke-width="3" opacity="0.6"/><path d="M84 290h5m6 0h5" stroke="#b3b9b9" stroke-width="3" opacity="0.6"/><path d="M84 305h5m6 0h5" stroke="#b3b9b9" stroke-width="3" opacity="0.6"/><path d="M84 320h5m6 0h5" stroke="#fae7ac" stroke-width="3" opacity="0.9"/><rect x="120" y="249" width="34" height="83" fill="#24395e"/><path d="M127 259h5m6 0h5" stroke="#fae7ac" stroke-width="3" opacity="0.9"/><path d="M127 274h5m6 0h5" stroke="#b3b9b9" stroke-width="3" opacity="0.6"/><path d="M127 289h5m6 0h5" stroke="#b3b9b9" stroke-width="3" opacity="0.6"/><path d="M127 304h5m6 0h5" stroke="#fae7ac" stroke-width="3" opacity="0.6"/><path d="M127 319h5m6 0h5" stroke="#b3b9b9" stroke-width="3" opacity="0.9"/><rect x="163" y="188" width="34" height="144" fill="#1c2b4c"/><path d="M170 198h5m6 0h5" stroke="#fae7ac" stroke-width="3" opacity="0.9"/><path d="M170 213h5m6 0h5" stroke="#b3b9b9" stroke-width="3" opacity="0.6"/><path d="M170 228h5m6 0h5" stroke="#b3b9b9" stroke-width="3" opacity="0.6"/><path d="M170 243h5m6 0h5" stroke="#fae7ac" stroke-width="3" opacity="0.6"/><path d="M170 258h5m6 0h5" stroke="#b3b9b9" stroke-width="3" opacity="0.9"/><path d="M170 273h5m6 0h5" stroke="#b3b9b9" stroke-width="3" opacity="0.6"/><path d="M170 288h5m6 0h5" stroke="#fae7ac" stroke-width="3" opacity="0.6"/><path d="M170 303h5m6 0h5" stroke="#b3b9b9" stroke-width="3" opacity="0.6"/><path d="M170 318h5m6 0h5" stroke="#b3b9b9" stroke-width="3" opacity="0.9"/><rect x="206" y="127" width="34" height="205" fill="#1c2b4c"/><path d="M213 137h5m6 0h5" stroke="#fae7ac" stroke-width="3" opacity="0.9"/><path d="M213 152h5m6 0h5" stroke="#b3b9b9" stroke-width="3" opacity="0.6"/><path d="M213 167h5m6 0h5" stroke="#b3b9b9" stroke-width="3" opacity="0.6"/><path d="M213 182h5m6 0h5" stroke="#fae7ac" stroke-width="3" opacity="0.6"/><path d="M213 197h5m6 0h5" stroke="#b3b9b9" stroke-width="3" opacity="0.9"/><path d="M213 212h5m6 0h5" stroke="#b3b9b9" stroke-width="3" opacity="0.6"/><path d="M213 227h5m6 0h5" stroke="#fae7ac" stroke-width="3" opacity="0.6"/><path d="M213 242h5m6 0h5" stroke="#b3b9b9" stroke-width="3" opacity="0.6"/><path d="M213 257h5m6 0h5" stroke="#b3b9b9" stroke-width="3" opacity="0.9"/><path d="M213 272h5m6 0h5" stroke="#fae7ac" stroke-width="3" opacity="0.6"/><path d="M213 287h5m6 0h5" stroke="#b3b9b9" stroke-width="3" opacity="0.6"/><path d="M213 302h5m6 0h5" stroke="#b3b9b9" stroke-width="3" opacity="0.6"/><path d="M213 317h5m6 0h5" stroke="#fae7ac" stroke-width="3" opacity="0.9"/><rect x="249" y="246" width="34" height="86" fill="#24395e"/><path d="M256 256h5m6 0h5" stroke="#fae7ac" stroke-width="3" opacity="0.9"/><path d="M256 271h5m6 0h5" stroke="#b3b9b9" stroke-width="3" opacity="0.6"/><path d="M256 286h5m6 0h5" stroke="#b3b9b9" stroke-width="3" opacity="0.6"/><path d="M256 301h5m6 0h5" stroke="#fae7ac" stroke-width="3" opacity="0.6"/><path d="M256 316h5m6 0h5" stroke="#b3b9b9" stroke-width="3" opacity="0.9"/><rect x="292" y="185" width="34" height="147" fill="#1c2b4c"/><path d="M299 195h5m6 0h5" stroke="#fae7ac" stroke-width="3" opacity="0.9"/><path d="M299 210h5m6 0h5" stroke="#b3b9b9" stroke-width="3" opacity="0.6"/><path d="M299 225h5m6 0h5" stroke="#b3b9b9" stroke-width="3" opacity="0.6"/><path d="M299 240h5m6 0h5" stroke="#fae7ac" stroke-width="3" opacity="0.6"/><path d="M299 255h5m6 0h5" stroke="#b3b9b9" stroke-width="3" opacity="0.9"/><path d="M299 270h5m6 0h5" stroke="#b3b9b9" stroke-width="3" opacity="0.6"/><path d="M299 285h5m6 0h5" stroke="#fae7ac" stroke-width="3" opacity="0.6"/><path d="M299 300h5m6 0h5" stroke="#b3b9b9" stroke-width="3" opacity="0.6"/><path d="M299 315h5m6 0h5" stroke="#b3b9b9" stroke-width="3" opacity="0.9"/><rect x="335" y="124" width="34" height="208" fill="#1c2b4c"/><path d="M342 134h5m6 0h5" stroke="#fae7ac" stroke-width="3" opacity="0.9"/><path d="M342 149h5m6 0h5" stroke="#b3b9b9" stroke-width="3" opacity="0.6"/><path d="M342 164h5m6 0h5" stroke="#b3b9b9" stroke-width="3" opacity="0.6"/><path d="M342 179h5m6 0h5" stroke="#fae7ac" stroke-width="3" opacity="0.6"/><path d="M342 194h5m6 0h5" stroke="#b3b9b9" stroke-width="3" opacity="0.9"/><path d="M342 209h5m6 0h5" stroke="#b3b9b9" stroke-width="3" opacity="0.6"/><path d="M342 224h5m6 0h5" stroke="#fae7ac" stroke-width="3" opacity="0.6"/><path d="M342 239h5m6 0h5" stroke="#b3b9b9" stroke-width="3" opacity="0.6"/><path d="M342 254h5m6 0h5" stroke="#b3b9b9" stroke-width="3" opacity="0.9"/><path d="M342 269h5m6 0h5" stroke="#fae7ac" stroke-width="3" opacity="0.6"/><path d="M342 284h5m6 0h5" stroke="#b3b9b9" stroke-width="3" opacity="0.6"/><path d="M342 299h5m6 0h5" stroke="#b3b9b9" stroke-width="3" opacity="0.6"/><path d="M342 314h5m6 0h5" stroke="#fae7ac" stroke-width="3" opacity="0.9"/><rect x="378" y="243" width="34" height="89" fill="#24395e"/><path d="M385 253h5m6 0h5" stroke="#fae7ac" stroke-width="3" opacity="0.9"/><path d="M385 268h5m6 0h5" stroke="#b3b9b9" stroke-width="3" opacity="0.6"/><path d="M385 283h5m6 0h5" stroke="#b3b9b9" stroke-width="3" opacity="0.6"/><path d="M385 298h5m6 0h5" stroke="#fae7ac" stroke-width="3" opacity="0.6"/><path d="M385 313h5m6 0h5" stroke="#b3b9b9" stroke-width="3" opacity="0.9"/><rect x="421" y="182" width="34" height="150" fill="#1c2b4c"/><path d="M428 192h5m6 0h5" stroke="#fae7ac" stroke-width="3" opacity="0.9"/><path d="M428 207h5m6 0h5" stroke="#b3b9b9" stroke-width="3" opacity="0.6"/><path d="M428 222h5m6 0h5" stroke="#b3b9b9" stroke-width="3" opacity="0.6"/><path d="M428 237h5m6 0h5" stroke="#fae7ac" stroke-width="3" opacity="0.6"/><path d="M428 252h5m6 0h5" stroke="#b3b9b9" stroke-width="3" opacity="0.9"/><path d="M428 267h5m6 0h5" stroke="#b3b9b9" stroke-width="3" opacity="0.6"/><path d="M428 282h5m6 0h5" stroke="#fae7ac" stroke-width="3" opacity="0.6"/><path d="M428 297h5m6 0h5" stroke="#b3b9b9" stroke-width="3" opacity="0.6"/><path d="M428 312h5m6 0h5" stroke="#b3b9b9" stroke-width="3" opacity="0.9"/><path d="M428 327h5m6 0h5" stroke="#fae7ac" stroke-width="3" opacity="0.6"/><rect x="464" y="121" width="34" height="211" fill="#1c2b4c"/><path d="M471 131h5m6 0h5" stroke="#fae7ac" stroke-width="3" opacity="0.9"/><path d="M471 146h5m6 0h5" stroke="#b3b9b9" stroke-width="3" opacity="0.6"/><path d="M471 161h5m6 0h5" stroke="#b3b9b9" stroke-width="3" opacity="0.6"/><path d="M471 176h5m6 0h5" stroke="#fae7ac" stroke-width="3" opacity="0.6"/><path d="M471 191h5m6 0h5" stroke="#b3b9b9" stroke-width="3" opacity="0.9"/><path d="M471 206h5m6 0h5" stroke="#b3b9b9" stroke-width="3" opacity="0.6"/><path d="M471 221h5m6 0h5" stroke="#fae7ac" stroke-width="3" opacity="0.6"/><path d="M471 236h5m6 0h5" stroke="#b3b9b9" stroke-width="3" opacity="0.6"/><path d="M471 251h5m6 0h5" stroke="#b3b9b9" stroke-width="3" opacity="0.9"/><path d="M471 266h5m6 0h5" stroke="#fae7ac" stroke-width="3" opacity="0.6"/><path d="M471 281h5m6 0h5" stroke="#b3b9b9" stroke-width="3" opacity="0.6"/><path d="M471 296h5m6 0h5" stroke="#b3b9b9" stroke-width="3" opacity="0.6"/><path d="M471 311h5m6 0h5" stroke="#fae7ac" stroke-width="3" opacity="0.9"/><path d="M471 326h5m6 0h5" stroke="#b3b9b9" stroke-width="3" opacity="0.6"/><rect x="507" y="240" width="34" height="92" fill="#24395e"/><path d="M514 250h5m6 0h5" stroke="#fae7ac" stroke-width="3" opacity="0.9"/><path d="M514 265h5m6 0h5" stroke="#b3b9b9" stroke-width="3" opacity="0.6"/><path d="M514 280h5m6 0h5" stroke="#b3b9b9" stroke-width="3" opacity="0.6"/><path d="M514 295h5m6 0h5" stroke="#fae7ac" stroke-width="3" opacity="0.6"/><path d="M514 310h5m6 0h5" stroke="#b3b9b9" stroke-width="3" opacity="0.9"/><path d="M514 325h5m6 0h5" stroke="#b3b9b9" stroke-width="3" opacity="0.6"/><rect x="550" y="179" width="34" height="153" fill="#1c2b4c"/><path d="M557 189h5m6 0h5" stroke="#fae7ac" stroke-width="3" opacity="0.9"/><path d="M557 204h5m6 0h5" stroke="#b3b9b9" stroke-width="3" opacity="0.6"/><path d="M557 219h5m6 0h5" stroke="#b3b9b9" stroke-width="3" opacity="0.6"/><path d="M557 234h5m6 0h5" stroke="#fae7ac" stroke-width="3" opacity="0.6"/><path d="M557 249h5m6 0h5" stroke="#b3b9b9" stroke-width="3" opacity="0.9"/><path d="M557 264h5m6 0h5" stroke="#b3b9b9" stroke-width="3" opacity="0.6"/><path d="M557 279h5m6 0h5" stroke="#fae7ac" stroke-width="3" opacity="0.6"/><path d="M557 294h5m6 0h5" stroke="#b3b9b9" stroke-width="3" opacity="0.6"/><path d="M557 309h5m6 0h5" stroke="#b3b9b9" stroke-width="3" opacity="0.9"/><path d="M557 324h5m6 0h5" stroke="#fae7ac" stroke-width="3" opacity="0.6"/><rect x="593" y="118" width="34" height="214" fill="#1c2b4c"/><path d="M600 128h5m6 0h5" stroke="#fae7ac" stroke-width="3" opacity="0.9"/><path d="M600 143h5m6 0h5" stroke="#b3b9b9" stroke-width="3" opacity="0.6"/><path d="M600 158h5m6 0h5" stroke="#b3b9b9" stroke-width="3" opacity="0.6"/><path d="M600 173h5m6 0h5" stroke="#fae7ac" stroke-width="3" opacity="0.6"/><path d="M600 188h5m6 0h5" stroke="#b3b9b9" stroke-width="3" opacity="0.9"/><path d="M600 203h5m6 0h5" stroke="#b3b9b9" stroke-width="3" opacity="0.6"/><path d="M600 218h5m6 0h5" stroke="#fae7ac" stroke-width="3" opacity="0.6"/><path d="M600 233h5m6 0h5" stroke="#b3b9b9" stroke-width="3" opacity="0.6"/><path d="M600 248h5m6 0h5" stroke="#b3b9b9" stroke-width="3" opacity="0.9"/><path d="M600 263h5m6 0h5" stroke="#fae7ac" stroke-width="3" opacity="0.6"/><path d="M600 278h5m6 0h5" stroke="#b3b9b9" stroke-width="3" opacity="0.6"/><path d="M600 293h5m6 0h5" stroke="#b3b9b9" stroke-width="3" opacity="0.6"/><path d="M600 308h5m6 0h5" stroke="#fae7ac" stroke-width="3" opacity="0.9"/><path d="M600 323h5m6 0h5" stroke="#b3b9b9" stroke-width="3" opacity="0.6"/><rect x="636" y="237" width="34" height="95" fill="#24395e"/><path d="M643 247h5m6 0h5" stroke="#fae7ac" stroke-width="3" opacity="0.9"/><path d="M643 262h5m6 0h5" stroke="#b3b9b9" stroke-width="3" opacity="0.6"/><path d="M643 277h5m6 0h5" stroke="#b3b9b9" stroke-width="3" opacity="0.6"/><path d="M643 292h5m6 0h5" stroke="#fae7ac" stroke-width="3" opacity="0.6"/><path d="M643 307h5m6 0h5" stroke="#b3b9b9" stroke-width="3" opacity="0.9"/><path d="M643 322h5m6 0h5" stroke="#b3b9b9" stroke-width="3" opacity="0.6"/><rect x="679" y="176" width="34" height="156" fill="#1c2b4c"/><path d="M686 186h5m6 0h5" stroke="#fae7ac" stroke-width="3" opacity="0.9"/><path d="M686 201h5m6 0h5" stroke="#b3b9b9" stroke-width="3" opacity="0.6"/><path d="M686 216h5m6 0h5" stroke="#b3b9b9" stroke-width="3" opacity="0.6"/><path d="M686 231h5m6 0h5" stroke="#fae7ac" stroke-width="3" opacity="0.6"/><path d="M686 246h5m6 0h5" stroke="#b3b9b9" stroke-width="3" opacity="0.9"/><path d="M686 261h5m6 0h5" stroke="#b3b9b9" stroke-width="3" opacity="0.6"/><path d="M686 276h5m6 0h5" stroke="#fae7ac" stroke-width="3" opacity="0.6"/><path d="M686 291h5m6 0h5" stroke="#b3b9b9" stroke-width="3" opacity="0.6"/><path d="M686 306h5m6 0h5" stroke="#b3b9b9" stroke-width="3" opacity="0.9"/><path d="M686 321h5m6 0h5" stroke="#fae7ac" stroke-width="3" opacity="0.6"/><rect x="722" y="115" width="34" height="217" fill="#1c2b4c"/><path d="M729 125h5m6 0h5" stroke="#fae7ac" stroke-width="3" opacity="0.9"/><path d="M729 140h5m6 0h5" stroke="#b3b9b9" stroke-width="3" opacity="0.6"/><path d="M729 155h5m6 0h5" stroke="#b3b9b9" stroke-width="3" opacity="0.6"/><path d="M729 170h5m6 0h5" stroke="#fae7ac" stroke-width="3" opacity="0.6"/><path d="M729 185h5m6 0h5" stroke="#b3b9b9" stroke-width="3" opacity="0.9"/><path d="M729 200h5m6 0h5" stroke="#b3b9b9" stroke-width="3" opacity="0.6"/><path d="M729 215h5m6 0h5" stroke="#fae7ac" stroke-width="3" opacity="0.6"/><path d="M729 230h5m6 0h5" stroke="#b3b9b9" stroke-width="3" opacity="0.6"/><path d="M729 245h5m6 0h5" stroke="#b3b9b9" stroke-width="3" opacity="0.9"/><path d="M729 260h5m6 0h5" stroke="#fae7ac" stroke-width="3" opacity="0.6"/><path d="M729 275h5m6 0h5" stroke="#b3b9b9" stroke-width="3" opacity="0.6"/><path d="M729 290h5m6 0h5" stroke="#b3b9b9" stroke-width="3" opacity="0.6"/><path d="M729 305h5m6 0h5" stroke="#fae7ac" stroke-width="3" opacity="0.9"/><path d="M729 320h5m6 0h5" stroke="#b3b9b9" stroke-width="3" opacity="0.6"/><path d="M0 333h720v87H0Z" fill="#152b45"/><path d="M20 349v20" stroke="#b28c88" opacity=".3" stroke-width="8"/><path d="M56 349v33" stroke="#718bab" opacity=".3" stroke-width="8"/><path d="M92 349v46" stroke="#718bab" opacity=".3" stroke-width="8"/><path d="M128 349v59" stroke="#b28c88" opacity=".3" stroke-width="8"/><path d="M164 349v72" stroke="#718bab" opacity=".3" stroke-width="8"/><path d="M200 349v30" stroke="#718bab" opacity=".3" stroke-width="8"/><path d="M236 349v43" stroke="#b28c88" opacity=".3" stroke-width="8"/><path d="M272 349v56" stroke="#718bab" opacity=".3" stroke-width="8"/><path d="M308 349v69" stroke="#718bab" opacity=".3" stroke-width="8"/><path d="M344 349v27" stroke="#b28c88" opacity=".3" stroke-width="8"/><path d="M380 349v40" stroke="#718bab" opacity=".3" stroke-width="8"/><path d="M416 349v53" stroke="#718bab" opacity=".3" stroke-width="8"/><path d="M452 349v66" stroke="#b28c88" opacity=".3" stroke-width="8"/><path d="M488 349v24" stroke="#718bab" opacity=".3" stroke-width="8"/><path d="M524 349v37" stroke="#718bab" opacity=".3" stroke-width="8"/><path d="M560 349v50" stroke="#b28c88" opacity=".3" stroke-width="8"/><path d="M596 349v63" stroke="#718bab" opacity=".3" stroke-width="8"/><path d="M632 349v21" stroke="#718bab" opacity=".3" stroke-width="8"/><path d="M668 349v34" stroke="#b28c88" opacity=".3" stroke-width="8"/><path d="M704 349v47" stroke="#718bab" opacity=".3" stroke-width="8"/><path d="M0 333h720" stroke="#8094b1" opacity=".4"/></svg>